<?xml version="1.0" encoding="UTF-8" standalone="no"?>
<!-- Created with Inkscape (http://www.inkscape.org/) -->

<svg
   width="210mm"
   height="210mm"
   viewBox="0 0 210 210"
   version="1.1"
   id="svg1"
   inkscape:version="1.3 (0e150ed, 2023-07-21)"
   sodipodi:docname="logo.svg"
   xmlns:inkscape="http://www.inkscape.org/namespaces/inkscape"
   xmlns:sodipodi="http://sodipodi.sourceforge.net/DTD/sodipodi-0.dtd"
   xmlns="http://www.w3.org/2000/svg"
   xmlns:svg="http://www.w3.org/2000/svg">
  <sodipodi:namedview
     id="namedview1"
     pagecolor="#ffffff"
     bordercolor="#000000"
     borderopacity="0.25"
     inkscape:showpageshadow="2"
     inkscape:pageopacity="0.0"
     inkscape:pagecheckerboard="0"
     inkscape:deskcolor="#d1d1d1"
     inkscape:document-units="mm"
     inkscape:zoom="0.76934413"
     inkscape:cx="308.70451"
     inkscape:cy="465.98133"
     inkscape:window-width="1424"
     inkscape:window-height="819"
     inkscape:window-x="190"
     inkscape:window-y="25"
     inkscape:window-maximized="0"
     inkscape:current-layer="layer1" />
  <defs
     id="defs1">
    <clipPath
       clipPathUnits="userSpaceOnUse"
       id="clipPath16">
      <path
         d="M 0,1000 H 1000 V 0 H 0 Z"
         transform="translate(-845.43362,-140.60943)"
         id="path16" />
    </clipPath>
  </defs>
  <g
     inkscape:label="Layer 1"
     inkscape:groupmode="layer"
     id="layer1">
    <circle
       style="fill:#f4f1de;fill-opacity:1;stroke:#7a80ba;stroke-width:4.10146;stroke-linecap:round;stroke-linejoin:round;stroke-dasharray:none;stroke-opacity:1;paint-order:fill markers stroke"
       id="path2"
       cx="105"
       cy="105"
       r="102.94927" />
    <path
       id="path15"
       d="m 0,0 c -99.651,-8.335 -162.375,179.506 -85.665,243.074 5.334,4.421 13.269,3.581 17.566,-1.852 10.25,-12.959 17.004,-24.226 17.093,-24.374 0.297,-0.495 29.691,-49.639 31.593,-65.808 1.313,-11.166 11.539,-22.147 20.56,-31.837 20.335,-19.157 14.269,-25.864 -3.024,-36.283 0,0 4.189,-16.625 7.707,-35.144 -22.029,-5.573 -36.045,7.66 -36.669,8.262 -1.182,1.154 -3.079,1.135 -4.237,-0.048 -1.16,-1.183 -1.141,-3.083 0.043,-4.242 0.582,-0.57 11.845,-11.352 30.15,-11.352 3.659,0 7.607,0.442 11.8,1.472 C 8.856,30.923 10.395,19.862 10.564,11.614 10.689,5.557 6.038,0.505 0,0 m 8.979,79.941 c 40.659,23.985 -13.575,45.41 -18.435,71.8 -2.05,17.44 -31.167,66.129 -32.4,68.185 -0.426,0.716 -10.04,16.76 -24.14,32.998 l 0.039,0.017 c -0.963,1.067 -3.26,3.61 -4.196,4.647 l -0.018,-0.008 c -38.07,48.305 -96.679,28.147 -151.653,0.408 4.971,-18.578 16.242,-60.041 24.638,-86.002 1.601,-4.948 6.191,-8.206 11.39,-8.346 49.886,-1.348 81.097,-93.014 31.17,-114.977 -51.182,-22.975 -98.964,66.437 -62.18,102.759 3.198,3.157 4.241,7.896 2.852,12.17 -8.079,24.857 -18.908,64.431 -24.231,84.234 -86.936,-63.098 -67.85,-182.216 7.932,-242.816 31.903,-24.464 151.741,-35.857 167.677,-36.616 25.369,0.123 74.294,2.402 80.307,30.022 l 0.047,0.015 c 0.178,1.222 0.774,5.317 0.961,6.606 L 18.526,4.969 C 20.101,28.865 11.23,69.995 8.979,79.941 m -51.413,85.45 c -2.75,0 -5,-2.25 -5,-5 v -35 c 0,-2.75 2.25,-5 5,-5 2.75,0 5,2.25 5,5 v 35 c 0,2.75 -2.25,5 -5,5"
       style="fill:#e07a5f;fill-opacity:1;fill-rule:nonzero;stroke:none"
       transform="matrix(0.40612975,0,0,-0.40612975,160.16379,156.81401)"
       clip-path="url(#clipPath16)" />
  </g>
</svg>
